<svg width="500" height="538" viewBox="0 0 500 538" fill="none" xmlns="http://www.w3.org/2000/svg">
<path d="M283.626 25.508C288.913 7.07223 308.147 -3.58744 326.585 1.69894C345.023 6.98531 355.684 26.2159 350.397 44.6517L216.374 511.985C211.087 530.421 191.853 541.08 173.415 535.794C154.977 530.508 144.316 511.277 149.603 492.841L283.626 25.508Z" fill="#0D0208"/>
<path d="M440.711 157.757C454.274 144.196 476.264 144.196 489.828 157.757C503.391 171.319 503.391 193.306 489.828 206.867L342.477 354.198C328.914 367.76 306.924 367.76 293.36 354.198C279.797 340.637 279.797 318.649 293.36 305.088L440.711 157.757Z" fill="#EA2A24"/>
<path d="M293.36 59.2813C279.797 45.7199 279.797 23.7325 293.36 10.1711C306.924 -3.39035 328.914 -3.39035 342.477 10.1711L489.828 157.502C503.391 171.063 503.391 193.051 489.828 206.612C476.264 220.173 454.274 220.173 440.711 206.612L293.36 59.2813Z" fill="#F5332C"/>
<path d="M59.2892 380.243C45.726 393.804 23.7357 393.804 10.1724 380.243C-3.39081 366.681 -3.39081 344.694 10.1724 331.133L157.523 183.802C171.086 170.24 193.076 170.24 206.64 183.802C220.203 197.363 220.203 219.351 206.64 232.912L59.2892 380.243Z" fill="#EA2A24"/>
<path d="M206.64 478.719C220.203 492.28 220.203 514.268 206.64 527.829C193.076 541.39 171.086 541.39 157.523 527.829L10.1724 380.498C-3.39081 366.937 -3.3908 344.95 10.1724 331.388C23.7357 317.827 45.726 317.827 59.2892 331.388L206.64 478.719Z" fill="#F5332C"/>
</svg>
